<?xml version="1.0" encoding="UTF-8"?>
<svg xmlns="http://www.w3.org/2000/svg" xmlns:xlink="http://www.w3.org/1999/xlink" width="248pt" height="256pt" viewBox="0 0 248 256" version="1.1">
<g id="surface21">
<path style=" stroke:none;fill-rule:nonzero;fill:rgb(70.980394%,89.803922%,81.176472%);fill-opacity:1;" d="M 168.25 80 C 161 35.351562 143.898438 4 124 4 C 104.101562 4 87 35.351562 79.75 80 Z M 76 128 C 76 139.101562 76.601562 149.75 77.648438 160 L 170.300781 160 C 171.351562 149.75 171.949219 139.101562 171.949219 128 C 171.949219 116.898438 171.351562 106.25 170.300781 96 L 77.648438 96 C 76.601562 106.25 76 116.898438 76 128 Z M 238.351562 80 C 224.050781 46.050781 195.101562 19.800781 159.351562 9.199219 C 171.550781 26.101562 179.949219 51.550781 184.351562 80 Z M 88.601562 9.199219 C 52.898438 19.800781 23.898438 46.050781 9.648438 80 L 63.648438 80 C 68 51.550781 76.398438 26.101562 88.601562 9.199219 Z M 243.699219 96 L 186.351562 96 C 187.398438 106.5 188 117.25 188 128 C 188 138.75 187.398438 149.5 186.351562 160 L 243.648438 160 C 246.398438 149.75 247.949219 139.101562 247.949219 128 C 247.949219 116.898438 246.398438 106.25 243.699219 96 Z M 60 128 C 60 117.25 60.601562 106.5 61.648438 96 L 4.300781 96 C 1.601562 106.25 0 116.898438 0 128 C 0 139.101562 1.601562 149.75 4.300781 160 L 61.601562 160 C 60.601562 149.5 60 138.75 60 128 Z M 79.75 176 C 87 220.648438 104.101562 252 124 252 C 143.898438 252 161 220.648438 168.25 176 Z M 159.398438 246.800781 C 195.101562 236.199219 224.101562 209.949219 238.398438 176 L 184.398438 176 C 180 204.449219 171.601562 229.898438 159.398438 246.800781 Z M 9.648438 176 C 23.949219 209.949219 52.898438 236.199219 88.648438 246.800781 C 76.449219 229.898438 68.050781 204.449219 63.648438 176 Z M 9.648438 176 "/>
</g>
</svg>
