<?xml version="1.0" encoding="UTF-8"?>
<svg xmlns="http://www.w3.org/2000/svg" xmlns:xlink="http://www.w3.org/1999/xlink" width="288pt" height="256pt" viewBox="0 0 288 256" version="1.1">
<g id="surface16">
<path style=" stroke:none;fill-rule:nonzero;fill:rgb(70.980394%,89.803922%,81.176472%);fill-opacity:1;" d="M 286.261719 120.699219 C 259.144531 67.796875 205.464844 32 144 32 C 82.535156 32 28.839844 67.820312 1.738281 120.703125 C -0.578125 125.292969 -0.578125 130.710938 1.738281 135.300781 C 28.855469 188.203125 82.535156 224 144 224 C 205.464844 224 259.160156 188.179688 286.261719 135.296875 C 288.578125 130.707031 288.578125 125.289062 286.261719 120.699219 Z M 144 200 C 104.234375 200 72 167.765625 72 128 C 72 88.234375 104.234375 56 144 56 C 183.765625 56 216 88.234375 216 128 C 216.019531 167.773438 183.773438 200.019531 144 200 Z M 144 80 C 139.714844 80.058594 135.457031 80.699219 131.34375 81.894531 C 138.351562 91.417969 137.351562 104.632812 128.992188 112.992188 C 120.632812 121.351562 107.417969 122.351562 97.894531 115.34375 C 92.515625 135.167969 100.375 156.214844 117.433594 167.660156 C 134.492188 179.101562 156.949219 178.394531 173.25 165.898438 C 189.550781 153.398438 196.066406 131.898438 189.445312 112.453125 C 182.824219 93.007812 164.542969 79.953125 144 80 Z M 144 80 "/>
</g>
</svg>
