<?xml version="1.0" encoding="UTF-8"?>
<svg xmlns="http://www.w3.org/2000/svg" xmlns:xlink="http://www.w3.org/1999/xlink" width="224pt" height="256pt" viewBox="0 0 224 256" version="1.1">
<g id="surface1">
<path style=" stroke:none;fill-rule:nonzero;fill:rgb(70.980394%,89.803922%,81.176472%);fill-opacity:1;" d="M 218 240 L 208 240 L 208 12 C 208 5.371094 202.628906 0 196 0 L 28 0 C 21.371094 0 16 5.371094 16 12 L 16 240 L 6 240 C 2.6875 240 0 242.6875 0 246 L 0 256 L 224 256 L 224 246 C 224 242.6875 221.3125 240 218 240 Z M 64 38 C 64 34.6875 66.6875 32 70 32 L 90 32 C 93.3125 32 96 34.6875 96 38 L 96 58 C 96 61.3125 93.3125 64 90 64 L 70 64 C 66.6875 64 64 61.3125 64 58 Z M 64 86 C 64 82.6875 66.6875 80 70 80 L 90 80 C 93.3125 80 96 82.6875 96 86 L 96 106 C 96 109.3125 93.3125 112 90 112 L 70 112 C 66.6875 112 64 109.3125 64 106 Z M 90 160 L 70 160 C 66.6875 160 64 157.3125 64 154 L 64 134 C 64 130.6875 66.6875 128 70 128 L 90 128 C 93.3125 128 96 130.6875 96 134 L 96 154 C 96 157.3125 93.3125 160 90 160 Z M 128 240 L 96 240 L 96 198 C 96 194.6875 98.6875 192 102 192 L 122 192 C 125.3125 192 128 194.6875 128 198 Z M 160 154 C 160 157.3125 157.3125 160 154 160 L 134 160 C 130.6875 160 128 157.3125 128 154 L 128 134 C 128 130.6875 130.6875 128 134 128 L 154 128 C 157.3125 128 160 130.6875 160 134 Z M 160 106 C 160 109.3125 157.3125 112 154 112 L 134 112 C 130.6875 112 128 109.3125 128 106 L 128 86 C 128 82.6875 130.6875 80 134 80 L 154 80 C 157.3125 80 160 82.6875 160 86 Z M 160 58 C 160 61.3125 157.3125 64 154 64 L 134 64 C 130.6875 64 128 61.3125 128 58 L 128 38 C 128 34.6875 130.6875 32 134 32 L 154 32 C 157.3125 32 160 34.6875 160 38 Z M 160 58 "/>
</g>
</svg>
